<svg xmlns="http://www.w3.org/2000/svg" width="375" viewBox="0 0 375 375" height="375" version="1.0"><defs><clipPath id="a"><path d="M 25.683594 26.625 L 334.683594 26.625 L 334.683594 335.625 L 25.683594 335.625 Z M 25.683594 26.625"/></clipPath><clipPath id="b"><path d="M 140 35 L 334.683594 35 L 334.683594 220 L 140 220 Z M 140 35"/></clipPath></defs><g clip-path="url(#a)"><path fill="#38B6FF" d="M 334.703125 181.113281 C 334.703125 181.480469 334.703125 181.882812 334.679688 182.253906 C 334.628906 189.863281 334.035156 197.347656 332.890625 204.664062 C 327.511719 240.011719 310.160156 271.394531 285.101562 294.546875 L 285.078125 294.546875 C 257.511719 320.050781 220.648438 335.644531 180.175781 335.644531 C 160.367188 335.644531 141.425781 331.925781 124.050781 325.105469 C 121.898438 324.292969 119.761719 323.398438 117.652344 322.460938 C 88.253906 309.441406 63.710938 287.53125 47.375 260.113281 C 39.175781 246.332031 33.023438 231.160156 29.40625 215.050781 C 26.953125 204.117188 25.664062 192.757812 25.664062 181.113281 C 25.664062 177.027344 25.816406 172.980469 26.164062 168.996094 C 28.765625 135.101562 42.328125 104.289062 63.296875 80.074219 C 71.371094 70.75 80.546875 62.394531 90.613281 55.234375 L 90.636719 55.210938 C 93.363281 53.28125 96.164062 51.394531 99.039062 49.636719 C 116.59375 38.777344 136.46875 31.3125 157.761719 28.214844 C 165.074219 27.144531 172.5625 26.605469 180.175781 26.605469 C 198.316406 26.605469 215.765625 29.75 231.929688 35.503906 C 258.058594 44.777344 280.910156 60.886719 298.414062 81.65625 C 321.074219 108.535156 334.703125 143.238281 334.703125 181.113281"/></g><path fill="#008037" d="M 200.816406 302.042969 C 200.816406 302.042969 192.402344 290.308594 193.339844 270.1875 C 194.269531 250.070312 192.402344 246.714844 179.324219 242.523438 C 166.242188 238.332031 153.15625 230.78125 151.289062 220.726562 C 149.421875 210.664062 160.632812 187.191406 160.632812 187.191406 C 160.632812 187.191406 175.585938 177.136719 188.667969 178.808594 C 201.746094 180.488281 224.179688 180.488281 234.453125 189.710938 C 244.734375 198.929688 251.269531 219.886719 255.941406 220.726562 C 260.613281 221.566406 249.402344 257.613281 247.535156 263.484375 C 245.667969 269.347656 240.0625 292.824219 235.390625 302.042969 C 230.71875 311.265625 226.046875 319.648438 222.304688 319.648438 C 218.570312 319.648438 201.746094 321.328125 200.816406 302.042969"/><path fill="#008037" d="M 128.210938 300.125 C 127.398438 304.085938 125.9375 314.625 124.050781 325.105469 C 121.898438 324.292969 119.761719 323.398438 117.652344 322.460938 C 88.253906 309.441406 63.710938 287.53125 47.375 260.113281 C 39.175781 246.332031 33.023438 231.160156 29.40625 215.050781 C 35.105469 212.019531 42.246094 209.296875 49.261719 209.421875 C 64.628906 209.722656 66.566406 213.5 79.652344 222.886719 C 92.714844 232.285156 102.953125 255.734375 108.484375 256.132812 C 114.007812 256.503906 129.628906 293.082031 128.210938 300.125"/><g clip-path="url(#b)"><path fill="#008037" d="M 334.703125 181.113281 C 334.703125 181.480469 334.703125 181.882812 334.679688 182.253906 C 334.628906 189.863281 334.035156 197.347656 332.890625 204.664062 C 325.953125 194.476562 318.464844 179.179688 314.652344 176.503906 C 308.773438 172.359375 287.238281 169.882812 295.066406 180.640625 C 302.902344 191.425781 306.21875 191.425781 306.21875 191.425781 C 306.21875 191.425781 291.148438 221.765625 280.394531 218.824219 C 269.613281 215.894531 248.070312 176.503906 248.070312 176.503906 C 235.347656 166.488281 259.816406 159.105469 259.816406 159.105469 C 259.816406 159.105469 267.652344 152.257812 255.898438 144.421875 C 244.152344 136.59375 235.347656 153.226562 227.519531 151.265625 C 219.6875 149.308594 217.722656 157.136719 215.273438 164.972656 C 212.820312 172.804688 205.675781 177.496094 204.015625 164.972656 C 202.332031 152.453125 184.433594 160.09375 178.5625 160.09375 C 172.683594 160.09375 160.9375 180.640625 150.152344 180.640625 C 139.394531 180.640625 139.394531 165.964844 141.351562 159.105469 C 143.3125 152.257812 159.945312 145.390625 175.613281 144.421875 C 191.277344 143.4375 176.601562 129.726562 181.488281 127.070312 C 186.390625 124.394531 201.070312 128.757812 215.273438 134.632812 C 229.453125 140.511719 244.152344 126.796875 256.890625 127.070312 C 269.613281 127.347656 229.476562 117.007812 242.191406 107.214844 C 254.9375 97.425781 227.519531 88.605469 228.484375 77.84375 C 229.476562 67.0625 220.648438 54.339844 220.648438 42.59375 C 220.648438 38.851562 224.816406 36.417969 231.929688 35.503906 C 258.058594 44.777344 280.910156 60.886719 298.414062 81.65625 C 321.074219 108.535156 334.703125 143.238281 334.703125 181.113281"/></g><path fill="#008037" d="M 115.960938 128.878906 C 115.960938 128.878906 121.636719 135.582031 126.011719 128.878906 C 130.390625 122.167969 131.011719 116.820312 128.273438 116.339844 C 125.523438 115.847656 109.230469 126.085938 115.960938 128.878906"/><path fill="#008037" d="M 82.894531 128.878906 C 82.894531 128.878906 94.5625 125.898438 97.15625 120.0625 C 99.753906 114.222656 114.664062 116.820312 118.550781 110.980469 C 122.445312 105.144531 132.511719 103.066406 134.941406 97.621094 C 137.355469 92.179688 139.992188 83.753906 129.921875 83.097656 C 119.851562 82.453125 109.925781 77.921875 110.027344 83.097656 C 110.125 88.292969 107.535156 86.992188 98.457031 90.234375 C 89.378906 93.476562 79.652344 88.800781 79.652344 97.621094 C 79.652344 106.449219 82.25 116.316406 82.25 116.316406 C 82.25 116.316406 77.058594 123.433594 82.894531 128.878906"/><path fill="#008037" d="M 157.761719 28.214844 C 157.761719 28.214844 140.386719 51.417969 137.160156 52.039062 C 133.917969 52.65625 123.976562 59.46875 122.140625 66.292969 C 120.285156 73.113281 107.265625 77.445312 97.355469 73.113281 C 87.4375 68.769531 85.15625 63.988281 90.613281 55.234375 L 90.636719 55.210938 C 93.363281 53.28125 96.164062 51.394531 99.039062 49.636719 C 116.59375 38.777344 136.46875 31.3125 157.761719 28.214844"/><path fill="#008037" d="M 60.371094 119.386719 C 58.730469 124.347656 59.128906 130.125 53.777344 131.855469 C 48.390625 133.59375 50.453125 140.035156 46.738281 148.292969 C 43.390625 155.734375 29.039062 166.835938 26.164062 168.996094 C 28.765625 135.101562 42.328125 104.289062 63.296875 80.074219 C 65.476562 86.695312 64.628906 97.621094 66.566406 101.191406 C 69.46875 106.570312 62.027344 114.429688 60.371094 119.386719"/><path d="M 283.480469 194.664062 C 283.113281 195.03125 282.695312 195.355469 282.21875 195.625 C 279.378906 197.238281 275.765625 196.246094 274.152344 193.40625 C 271.539062 188.800781 268.292969 184.550781 264.511719 180.765625 C 262.199219 178.457031 262.199219 174.710938 264.511719 172.402344 C 266.820312 170.09375 270.566406 170.09375 272.875 172.402344 C 277.410156 176.933594 281.296875 182.035156 284.4375 187.5625 C 285.785156 189.925781 285.320312 192.828125 283.480469 194.664062"/><path d="M 253.902344 167.570312 C 252.207031 169.265625 249.570312 169.820312 247.261719 168.765625 C 233.457031 162.460938 217.316406 161.730469 202.972656 166.769531 C 199.890625 167.851562 196.511719 166.230469 195.433594 163.148438 C 194.347656 160.0625 195.972656 156.6875 199.054688 155.605469 C 216.507812 149.476562 235.375 150.328125 252.175781 158.003906 C 255.148438 159.363281 256.457031 162.871094 255.101562 165.84375 C 254.796875 166.503906 254.386719 167.085938 253.902344 167.570312"/><path d="M 301.507812 222.636719 C 301.507812 243.703125 293.304688 263.511719 278.40625 278.40625 C 263.511719 293.304688 243.703125 301.507812 222.636719 301.507812 C 201.570312 301.507812 181.765625 293.304688 166.871094 278.40625 C 151.972656 263.511719 143.769531 243.703125 143.769531 222.636719 C 143.769531 201.570312 151.972656 181.765625 166.871094 166.871094 C 181.765625 151.972656 201.570312 143.769531 222.636719 143.769531 C 243.703125 143.769531 263.511719 151.972656 278.40625 166.871094 C 293.304688 181.765625 301.507812 201.570312 301.507812 222.636719 Z M 152.925781 152.925781 C 114.425781 191.425781 114.425781 253.847656 152.925781 292.347656 C 189.863281 329.285156 248.820312 330.777344 287.542969 296.839844 L 291.28125 300.574219 C 290.113281 304.957031 291.234375 309.824219 294.671875 313.261719 L 350.941406 369.53125 C 356.074219 374.664062 364.398438 374.664062 369.53125 369.53125 C 374.664062 364.398438 374.664062 356.074219 369.53125 350.941406 L 313.261719 294.671875 C 309.824219 291.234375 304.957031 290.109375 300.574219 291.28125 L 296.839844 287.542969 C 330.78125 248.820312 329.289062 189.863281 292.347656 152.925781 C 253.847656 114.425781 191.425781 114.425781 152.925781 152.925781"/><path fill="#FFDE59" d="M 158.546875 214.671875 C 158.445312 213.890625 158.417969 213.109375 158.46875 212.324219 C 158.519531 211.542969 158.644531 210.769531 158.847656 210.007812 C 159.046875 209.25 159.320312 208.515625 159.664062 207.808594 C 160.007812 207.101562 160.414062 206.4375 160.890625 205.808594 C 161.363281 205.183594 161.890625 204.609375 162.476562 204.085938 C 163.0625 203.5625 163.695312 203.101562 164.367188 202.703125 C 165.042969 202.304688 165.75 201.976562 166.492188 201.714844 C 167.230469 201.453125 167.988281 201.269531 168.761719 201.15625 C 206.488281 196.679688 244.214844 196.679688 281.941406 201.15625 C 282.714844 201.269531 283.472656 201.453125 284.214844 201.714844 C 284.953125 201.976562 285.660156 202.304688 286.335938 202.703125 C 287.011719 203.101562 287.640625 203.5625 288.226562 204.085938 C 288.8125 204.609375 289.339844 205.183594 289.816406 205.808594 C 290.289062 206.4375 290.695312 207.101562 291.039062 207.808594 C 291.382812 208.515625 291.65625 209.25 291.859375 210.007812 C 292.058594 210.769531 292.183594 211.542969 292.234375 212.324219 C 292.285156 213.109375 292.257812 213.890625 292.15625 214.671875 L 288.449219 240.558594 C 288.347656 241.351562 288.167969 242.125 287.910156 242.882812 C 287.65625 243.640625 287.328125 244.363281 286.929688 245.054688 C 286.53125 245.75 286.066406 246.394531 285.539062 246.992188 C 285.011719 247.59375 284.429688 248.132812 283.796875 248.617188 C 283.160156 249.101562 282.484375 249.519531 281.769531 249.867188 C 281.050781 250.214844 280.304688 250.492188 279.535156 250.691406 C 278.761719 250.890625 277.980469 251.015625 277.183594 251.058594 C 276.386719 251.101562 275.597656 251.066406 274.808594 250.953125 C 241.835938 247.136719 208.867188 247.136719 175.898438 250.953125 C 175.109375 251.066406 174.316406 251.101562 173.519531 251.058594 C 172.722656 251.015625 171.941406 250.890625 171.167969 250.691406 C 170.398438 250.492188 169.652344 250.214844 168.9375 249.867188 C 168.21875 249.519531 167.542969 249.101562 166.90625 248.617188 C 166.273438 248.136719 165.691406 247.59375 165.164062 246.992188 C 164.636719 246.394531 164.175781 245.75 163.773438 245.054688 C 163.375 244.363281 163.046875 243.640625 162.792969 242.882812 C 162.535156 242.125 162.355469 241.351562 162.253906 240.558594 Z M 158.546875 214.671875"/><g><g><g><path d="M 7.25 -20.671875 C 7.351562 -20.835938 7.519531 -20.929688 7.75 -20.953125 C 7.988281 -20.984375 8.34375 -20.910156 8.8125 -20.734375 C 9.28125 -20.566406 9.675781 -20.3125 10 -19.96875 C 10.320312 -19.625 10.488281 -19.359375 10.5 -19.171875 C 10.519531 -18.992188 10.472656 -18.84375 10.359375 -18.71875 L 4.734375 -11.0625 L 11.796875 -5.09375 C 11.941406 -4.976562 12.019531 -4.832031 12.03125 -4.65625 C 12.050781 -4.476562 11.929688 -4.179688 11.671875 -3.765625 C 11.421875 -3.347656 11.085938 -3.019531 10.671875 -2.78125 C 10.253906 -2.539062 9.9375 -2.410156 9.71875 -2.390625 C 9.5 -2.367188 9.304688 -2.421875 9.140625 -2.546875 L 1.109375 -9.859375 C 0.785156 -10.117188 0.613281 -10.363281 0.59375 -10.59375 C 0.570312 -10.820312 0.65625 -11.050781 0.84375 -11.28125 Z M 7.25 -20.671875" transform="translate(173.95 236.744)"/></g></g></g><g><g><g><path d="M 16.609375 -10.4375 C 16.816406 -10.457031 16.96875 -9.675781 17.0625 -8.09375 C 17.164062 -6.507812 17.113281 -5.707031 16.90625 -5.6875 L 14.828125 -5.53125 L 15.0625 -1.578125 C 15.082031 -1.347656 14.664062 -1.15625 13.8125 -1 C 12.957031 -0.84375 12.222656 -0.75 11.609375 -0.71875 L 10.3125 -0.6875 C 9.226562 -0.707031 8.679688 -0.863281 8.671875 -1.15625 L 8.421875 -5.046875 L 2.171875 -4.671875 C 1.597656 -5.179688 1.0625 -5.859375 0.5625 -6.703125 C 0.0703125 -7.546875 -0.179688 -8.160156 -0.203125 -8.546875 C -0.234375 -8.929688 -0.191406 -9.25 -0.078125 -9.5 L 6.0625 -22.09375 C 6.132812 -22.257812 6.769531 -22.425781 7.96875 -22.59375 C 9.164062 -22.757812 10.421875 -22.878906 11.734375 -22.953125 C 13.054688 -23.035156 13.722656 -23.019531 13.734375 -22.90625 L 14.53125 -10.3125 Z M 9.046875 -9.953125 L 8.640625 -16.53125 L 5.359375 -9.71875 Z M 9.046875 -9.953125" transform="translate(188.699 235.245)"/></g></g></g><g><g><g><path d="M 10.0625 0.125 C 7.425781 0.175781 5.253906 -0.742188 3.546875 -2.640625 C 1.847656 -4.546875 0.960938 -7.351562 0.890625 -11.0625 C 0.828125 -14.78125 1.613281 -17.601562 3.25 -19.53125 C 4.894531 -21.46875 7.046875 -22.460938 9.703125 -22.515625 C 12.359375 -22.566406 14.519531 -21.660156 16.1875 -19.796875 C 17.863281 -17.941406 18.738281 -15.113281 18.8125 -11.3125 C 18.882812 -7.519531 18.101562 -4.675781 16.46875 -2.78125 C 14.832031 -0.894531 12.695312 0.0703125 10.0625 0.125 Z M 9.75 -16.46875 C 8.945312 -16.457031 8.273438 -15.988281 7.734375 -15.0625 C 7.191406 -14.132812 6.9375 -12.832031 6.96875 -11.15625 C 7 -9.476562 7.289062 -8.195312 7.84375 -7.3125 C 8.394531 -6.425781 9.09375 -5.988281 9.9375 -6 C 10.789062 -6.019531 11.476562 -6.484375 12 -7.390625 C 12.519531 -8.304688 12.765625 -9.601562 12.734375 -11.28125 C 12.703125 -12.957031 12.398438 -14.242188 11.828125 -15.140625 C 11.253906 -16.035156 10.5625 -16.476562 9.75 -16.46875 Z M 9.75 -16.46875" transform="translate(207.019 234.098)"/></g></g></g><g><g><g><path d="M 17.4375 -8.984375 C 17.644531 -8.984375 17.726562 -8.191406 17.6875 -6.609375 C 17.65625 -5.023438 17.535156 -4.234375 17.328125 -4.234375 L 15.25 -4.265625 L 15.15625 -0.296875 C 15.144531 -0.0664062 14.707031 0.0859375 13.84375 0.171875 C 12.988281 0.253906 12.25 0.289062 11.625 0.28125 L 10.328125 0.1875 C 9.253906 0.0703125 8.722656 -0.128906 8.734375 -0.421875 L 8.828125 -4.328125 L 2.5625 -4.46875 C 2.03125 -5.03125 1.550781 -5.753906 1.125 -6.640625 C 0.707031 -7.523438 0.503906 -8.160156 0.515625 -8.546875 C 0.523438 -8.929688 0.597656 -9.238281 0.734375 -9.46875 L 7.921875 -21.515625 C 8.015625 -21.671875 8.660156 -21.78125 9.859375 -21.84375 C 11.066406 -21.90625 12.332031 -21.921875 13.65625 -21.890625 C 14.976562 -21.859375 15.640625 -21.785156 15.640625 -21.671875 L 15.359375 -9.046875 Z M 9.859375 -9.140625 L 10.03125 -15.734375 L 6.171875 -9.234375 Z M 9.859375 -9.140625" transform="translate(226.661 233.736)"/></g></g></g><g><g><g><path d="M 16.34375 -23.40625 C 16.457031 -23.625 16.664062 -23.722656 16.96875 -23.703125 C 17.28125 -23.691406 17.597656 -23.601562 17.921875 -23.4375 C 18.671875 -23.019531 19.148438 -22.5625 19.359375 -22.0625 C 19.429688 -21.914062 19.460938 -21.78125 19.453125 -21.65625 C 19.441406 -21.53125 19.414062 -21.425781 19.375 -21.34375 L 3.0625 3.1875 C 2.90625 3.40625 2.671875 3.503906 2.359375 3.484375 C 2.046875 3.460938 1.738281 3.363281 1.4375 3.1875 C 0.664062 2.757812 0.175781 2.304688 -0.03125 1.828125 C -0.0820312 1.703125 -0.101562 1.582031 -0.09375 1.46875 C -0.0820312 1.351562 -0.046875 1.242188 0.015625 1.140625 Z M 16.34375 -23.40625" transform="translate(245.036 234.178)"/></g></g></g><g><g><g><path d="M 13.171875 -9.875 C 13.359375 -9.65625 13.441406 -9.429688 13.421875 -9.203125 C 13.398438 -8.972656 13.226562 -8.726562 12.90625 -8.46875 L 4.84375 -1.15625 C 4.695312 -1.03125 4.515625 -0.976562 4.296875 -1 C 4.078125 -1.03125 3.75 -1.160156 3.3125 -1.390625 C 2.882812 -1.628906 2.546875 -1.957031 2.296875 -2.375 C 2.054688 -2.800781 1.945312 -3.101562 1.96875 -3.28125 C 1.988281 -3.457031 2.066406 -3.597656 2.203125 -3.703125 L 9.28125 -9.671875 L 3.65625 -17.3125 C 3.539062 -17.445312 3.492188 -17.601562 3.515625 -17.78125 C 3.535156 -17.96875 3.703125 -18.234375 4.015625 -18.578125 C 4.335938 -18.929688 4.734375 -19.1875 5.203125 -19.34375 C 5.679688 -19.5 6.03125 -19.566406 6.25 -19.546875 C 6.46875 -19.523438 6.640625 -19.4375 6.765625 -19.28125 Z M 13.171875 -9.875" transform="translate(262.646 235.341)"/></g></g></g><path fill="#FFBD59" d="M 276.902344 194.664062 C 276.535156 195.03125 276.113281 195.355469 275.640625 195.625 C 272.800781 197.238281 269.1875 196.246094 267.574219 193.40625 C 264.957031 188.800781 261.714844 184.550781 257.929688 180.765625 C 255.621094 178.457031 255.621094 174.710938 257.929688 172.402344 C 260.242188 170.09375 263.988281 170.09375 266.296875 172.402344 C 270.828125 176.933594 274.71875 182.035156 277.859375 187.5625 C 279.207031 189.925781 278.742188 192.828125 276.902344 194.664062"/><path fill="#FFBD59" d="M 247.324219 167.570312 C 245.625 169.265625 242.992188 169.820312 240.683594 168.765625 C 226.878906 162.460938 210.738281 161.730469 196.394531 166.769531 C 193.3125 167.851562 189.933594 166.230469 188.851562 163.148438 C 187.769531 160.0625 189.394531 156.6875 192.472656 155.605469 C 209.929688 149.476562 228.796875 150.328125 245.597656 158.003906 C 248.570312 159.363281 249.878906 162.871094 248.519531 165.84375 C 248.21875 166.503906 247.808594 167.085938 247.324219 167.570312"/><path fill="#FFBD59" d="M 294.929688 222.636719 C 294.929688 243.703125 286.726562 263.511719 271.828125 278.40625 C 256.933594 293.304688 237.125 301.507812 216.058594 301.507812 C 194.992188 301.507812 175.1875 293.304688 160.292969 278.40625 C 145.394531 263.511719 137.1875 243.703125 137.1875 222.636719 C 137.1875 201.570312 145.394531 181.765625 160.292969 166.871094 C 175.1875 151.972656 194.992188 143.769531 216.058594 143.769531 C 237.125 143.769531 256.933594 151.972656 271.828125 166.871094 C 286.726562 181.765625 294.929688 201.570312 294.929688 222.636719 Z M 146.347656 152.925781 C 107.847656 191.425781 107.847656 253.847656 146.347656 292.347656 C 183.285156 329.285156 242.242188 330.777344 280.964844 296.839844 L 284.699219 300.574219 C 283.535156 304.957031 284.65625 309.824219 288.09375 313.261719 L 344.363281 369.53125 C 349.496094 374.664062 357.820312 374.664062 362.953125 369.53125 C 368.085938 364.398438 368.085938 356.074219 362.953125 350.941406 L 306.683594 294.671875 C 303.246094 291.234375 298.378906 290.109375 293.996094 291.28125 L 290.261719 287.542969 C 324.203125 248.820312 322.710938 189.863281 285.769531 152.925781 C 247.269531 114.425781 184.847656 114.425781 146.347656 152.925781"/></svg>