<svg xmlns="http://www.w3.org/2000/svg" width="375" viewBox="0 0 375 375" height="375" version="1.0"><defs><clipPath id="a"><path d="M 25.683594 26.625 L 334.683594 26.625 L 334.683594 335.625 L 25.683594 335.625 Z M 25.683594 26.625"/></clipPath><clipPath id="b"><path d="M 140 35 L 334.683594 35 L 334.683594 220 L 140 220 Z M 140 35"/></clipPath><clipPath id="c"><path d="M 179 25.046875 L 337 25.046875 L 337 183 L 179 183 Z M 179 25.046875"/></clipPath><clipPath id="d"><path d="M 25 179 L 182 179 L 182 335.546875 L 25 335.546875 Z M 25 179"/></clipPath></defs><path fill="#FFF" d="M-37.5 -37.5H412.5V412.5H-37.5z"/><path fill="#FFF" d="M-37.5 -37.5H412.5V412.5H-37.5z"/><path fill="#FFF" d="M-37.5 -37.5H412.5V412.5H-37.5z"/><g clip-path="url(#a)"><path fill="#38B6FF" d="M 334.703125 181.113281 C 334.703125 181.480469 334.703125 181.882812 334.679688 182.253906 C 334.628906 189.863281 334.035156 197.347656 332.890625 204.664062 C 327.511719 240.011719 310.160156 271.394531 285.101562 294.546875 L 285.078125 294.546875 C 257.511719 320.050781 220.648438 335.644531 180.175781 335.644531 C 160.367188 335.644531 141.425781 331.925781 124.050781 325.105469 C 121.898438 324.292969 119.761719 323.398438 117.652344 322.460938 C 88.253906 309.441406 63.710938 287.53125 47.375 260.113281 C 39.175781 246.332031 33.023438 231.160156 29.40625 215.050781 C 26.953125 204.117188 25.664062 192.757812 25.664062 181.113281 C 25.664062 177.027344 25.816406 172.980469 26.164062 168.996094 C 28.765625 135.101562 42.328125 104.289062 63.296875 80.074219 C 71.371094 70.75 80.546875 62.394531 90.613281 55.234375 L 90.636719 55.210938 C 93.363281 53.28125 96.164062 51.394531 99.039062 49.636719 C 116.59375 38.777344 136.46875 31.3125 157.761719 28.214844 C 165.074219 27.144531 172.5625 26.605469 180.175781 26.605469 C 198.316406 26.605469 215.765625 29.75 231.929688 35.503906 C 258.058594 44.777344 280.910156 60.886719 298.414062 81.65625 C 321.074219 108.535156 334.703125 143.238281 334.703125 181.113281"/></g><path fill="#008037" d="M 200.816406 302.042969 C 200.816406 302.042969 192.402344 290.308594 193.339844 270.1875 C 194.269531 250.070312 192.402344 246.714844 179.324219 242.523438 C 166.242188 238.332031 153.15625 230.78125 151.289062 220.726562 C 149.421875 210.664062 160.632812 187.191406 160.632812 187.191406 C 160.632812 187.191406 175.585938 177.136719 188.667969 178.808594 C 201.746094 180.488281 224.179688 180.488281 234.453125 189.710938 C 244.734375 198.929688 251.269531 219.886719 255.941406 220.726562 C 260.613281 221.566406 249.402344 257.613281 247.535156 263.484375 C 245.667969 269.347656 240.0625 292.824219 235.390625 302.042969 C 230.71875 311.265625 226.046875 319.648438 222.304688 319.648438 C 218.570312 319.648438 201.746094 321.328125 200.816406 302.042969"/><path fill="#008037" d="M 128.210938 300.125 C 127.398438 304.085938 125.9375 314.625 124.050781 325.105469 C 121.898438 324.292969 119.761719 323.398438 117.652344 322.460938 C 88.253906 309.441406 63.710938 287.53125 47.375 260.113281 C 39.175781 246.332031 33.023438 231.160156 29.40625 215.050781 C 35.105469 212.019531 42.246094 209.296875 49.261719 209.421875 C 64.628906 209.722656 66.566406 213.5 79.652344 222.886719 C 92.714844 232.285156 102.953125 255.734375 108.484375 256.132812 C 114.007812 256.503906 129.628906 293.082031 128.210938 300.125"/><g clip-path="url(#b)"><path fill="#008037" d="M 334.703125 181.113281 C 334.703125 181.480469 334.703125 181.882812 334.679688 182.253906 C 334.628906 189.863281 334.035156 197.347656 332.890625 204.664062 C 325.953125 194.476562 318.464844 179.179688 314.652344 176.503906 C 308.773438 172.359375 287.238281 169.882812 295.066406 180.640625 C 302.902344 191.425781 306.21875 191.425781 306.21875 191.425781 C 306.21875 191.425781 291.148438 221.765625 280.394531 218.824219 C 269.613281 215.894531 248.070312 176.503906 248.070312 176.503906 C 235.347656 166.488281 259.816406 159.105469 259.816406 159.105469 C 259.816406 159.105469 267.652344 152.257812 255.898438 144.421875 C 244.152344 136.59375 235.347656 153.226562 227.519531 151.265625 C 219.6875 149.308594 217.722656 157.136719 215.273438 164.972656 C 212.820312 172.804688 205.675781 177.496094 204.015625 164.972656 C 202.332031 152.453125 184.433594 160.09375 178.5625 160.09375 C 172.683594 160.09375 160.9375 180.640625 150.152344 180.640625 C 139.394531 180.640625 139.394531 165.964844 141.351562 159.105469 C 143.3125 152.257812 159.945312 145.390625 175.613281 144.421875 C 191.277344 143.4375 176.601562 129.726562 181.488281 127.070312 C 186.390625 124.394531 201.070312 128.757812 215.273438 134.632812 C 229.453125 140.511719 244.152344 126.796875 256.890625 127.070312 C 269.613281 127.347656 229.476562 117.007812 242.191406 107.214844 C 254.9375 97.425781 227.519531 88.605469 228.484375 77.84375 C 229.476562 67.0625 220.648438 54.339844 220.648438 42.59375 C 220.648438 38.851562 224.816406 36.417969 231.929688 35.503906 C 258.058594 44.777344 280.910156 60.886719 298.414062 81.65625 C 321.074219 108.535156 334.703125 143.238281 334.703125 181.113281"/></g><path fill="#008037" d="M 115.960938 128.878906 C 115.960938 128.878906 121.636719 135.582031 126.011719 128.878906 C 130.390625 122.167969 131.011719 116.820312 128.273438 116.339844 C 125.523438 115.847656 109.230469 126.085938 115.960938 128.878906"/><path fill="#008037" d="M 82.894531 128.878906 C 82.894531 128.878906 94.5625 125.898438 97.15625 120.0625 C 99.753906 114.222656 114.664062 116.820312 118.550781 110.980469 C 122.445312 105.144531 132.511719 103.066406 134.941406 97.621094 C 137.355469 92.179688 139.992188 83.753906 129.921875 83.097656 C 119.851562 82.453125 109.925781 77.921875 110.027344 83.097656 C 110.125 88.292969 107.535156 86.992188 98.457031 90.234375 C 89.378906 93.476562 79.652344 88.800781 79.652344 97.621094 C 79.652344 106.449219 82.25 116.316406 82.25 116.316406 C 82.25 116.316406 77.058594 123.433594 82.894531 128.878906"/><path fill="#008037" d="M 157.761719 28.214844 C 157.761719 28.214844 140.386719 51.417969 137.160156 52.039062 C 133.917969 52.65625 123.976562 59.46875 122.140625 66.292969 C 120.285156 73.113281 107.265625 77.445312 97.355469 73.113281 C 87.4375 68.769531 85.15625 63.988281 90.613281 55.234375 L 90.636719 55.210938 C 93.363281 53.28125 96.164062 51.394531 99.039062 49.636719 C 116.59375 38.777344 136.46875 31.3125 157.761719 28.214844"/><path fill="#008037" d="M 60.371094 119.386719 C 58.730469 124.347656 59.128906 130.125 53.777344 131.855469 C 48.390625 133.59375 50.453125 140.035156 46.738281 148.292969 C 43.390625 155.734375 29.039062 166.835938 26.164062 168.996094 C 28.765625 135.101562 42.328125 104.289062 63.296875 80.074219 C 65.476562 86.695312 64.628906 97.621094 66.566406 101.191406 C 69.46875 106.570312 62.027344 114.429688 60.371094 119.386719"/><path fill="#FFF" d="M 142.871094 154.75 L 194.816406 102.785156 L 209.796875 117.769531 L 157.851562 169.738281 Z M 142.871094 154.75"/><path fill="#FFBD59" d="M 194.804688 108.5625 L 204.011719 117.773438 L 157.84375 163.953125 L 148.640625 154.746094 L 194.804688 108.5625 M 194.804688 97.007812 L 189.03125 102.785156 L 142.863281 148.96875 L 137.089844 154.746094 L 142.863281 160.523438 L 152.070312 169.730469 L 157.84375 175.507812 L 163.621094 169.730469 L 209.785156 123.550781 L 215.558594 117.773438 L 209.785156 111.996094 L 200.578125 102.785156 Z M 194.804688 97.007812"/><path fill="#FFF" d="M 191.878906 203.777344 L 243.824219 151.808594 L 258.804688 166.796875 L 206.859375 218.765625 Z M 191.878906 203.777344"/><path fill="#FFBD59" d="M 243.8125 157.589844 L 253.019531 166.796875 L 206.851562 212.980469 L 197.648438 203.773438 L 243.8125 157.589844 M 243.8125 146.035156 L 238.039062 151.8125 L 191.871094 197.996094 L 186.097656 203.773438 L 191.871094 209.550781 L 201.078125 218.757812 L 206.851562 224.535156 L 212.628906 218.757812 L 258.792969 172.574219 L 264.566406 166.796875 L 258.792969 161.023438 L 249.585938 151.8125 Z M 243.8125 146.035156"/><path fill="#FFDE59" d="M 184.890625 81.117188 L 224.273438 41.714844 C 231.625 34.371094 241.394531 30.316406 251.785156 30.316406 C 262.175781 30.316406 271.945312 34.371094 279.292969 41.714844 L 290.191406 52.625 L 312 30.824219 L 330.726562 49.558594 L 308.9375 71.359375 L 319.839844 82.261719 C 335.007812 97.433594 335.007812 122.128906 319.839844 137.308594 L 280.453125 176.710938 Z M 184.890625 81.117188"/><g clip-path="url(#c)"><path fill="#FFBD59" d="M 251.792969 34.402344 C 261.097656 34.402344 269.835938 38.023438 276.417969 44.609375 L 284.433594 52.625 L 290.207031 58.402344 L 295.980469 52.625 L 312 36.601562 L 324.953125 49.558594 L 308.9375 65.582031 L 303.160156 71.359375 L 308.9375 77.136719 L 316.949219 85.152344 C 323.523438 91.730469 327.152344 100.480469 327.152344 109.789062 C 327.152344 119.097656 323.53125 127.839844 316.949219 134.425781 L 280.453125 170.933594 L 190.671875 81.117188 L 227.167969 44.609375 C 233.742188 38.03125 242.488281 34.402344 251.792969 34.402344 M 312 25.046875 L 290.207031 46.847656 L 282.1875 38.832031 C 273.789062 30.433594 262.789062 26.230469 251.785156 26.230469 C 240.78125 26.230469 229.78125 30.433594 221.382812 38.832031 L 179.113281 81.117188 L 280.445312 182.488281 L 322.714844 140.203125 C 339.507812 123.410156 339.507812 96.175781 322.714844 79.375 L 314.703125 71.359375 L 336.503906 49.558594 Z M 312 25.046875"/></g><path fill="#FFDE59" d="M 151.417969 97.328125 L 168.292969 80.4375 C 173.550781 75.175781 180.28125 72.160156 186.757812 72.160156 C 191.351562 72.160156 195.285156 73.6875 198.171875 76.566406 L 284.996094 163.421875 C 292.160156 170.597656 290.425781 184.007812 281.117188 193.3125 L 264.234375 210.195312 Z M 151.417969 97.328125"/><path fill="#FFBD59" d="M 186.769531 76.246094 C 189.195312 76.246094 192.648438 76.800781 195.296875 79.449219 L 282.121094 166.308594 C 287.601562 171.789062 285.828125 182.839844 278.242188 190.421875 L 264.25 204.417969 L 157.191406 97.328125 L 171.183594 83.332031 C 175.617188 78.894531 181.441406 76.246094 186.769531 76.246094 M 186.769531 68.074219 C 179.523438 68.074219 171.640625 71.320312 165.410156 77.554688 L 145.640625 97.328125 L 264.25 215.980469 L 284.015625 196.207031 C 294.9375 185.28125 296.667969 169.316406 287.894531 160.539062 L 201.070312 73.679688 C 197.304688 69.90625 192.207031 68.074219 186.769531 68.074219 Z M 186.769531 68.074219"/><path fill="#FFDE59" d="M 109.253906 331.855469 C 98.863281 331.855469 89.09375 327.800781 81.742188 320.457031 L 70.847656 309.546875 L 50.625 329.769531 L 31.894531 311.035156 L 52.109375 290.808594 L 41.207031 279.902344 C 26.039062 264.726562 26.039062 240.035156 41.207031 224.855469 L 80.59375 185.453125 L 176.148438 281.046875 L 136.761719 320.445312 C 129.414062 327.800781 119.644531 331.855469 109.253906 331.855469 Z M 109.253906 331.855469"/><g clip-path="url(#d)"><path fill="#FFBD59" d="M 80.59375 191.238281 L 170.375 281.054688 L 133.878906 317.5625 C 127.304688 324.140625 118.558594 327.769531 109.253906 327.769531 C 99.949219 327.769531 91.210938 324.148438 84.628906 317.5625 L 76.613281 309.546875 L 70.839844 303.769531 L 65.066406 309.546875 L 50.625 323.992188 L 37.667969 311.035156 L 52.109375 296.585938 L 57.886719 290.808594 L 52.109375 285.035156 L 44.097656 277.019531 C 30.523438 263.4375 30.523438 241.335938 44.097656 227.746094 L 80.59375 191.238281 M 80.59375 179.683594 L 38.324219 221.96875 C 21.53125 238.769531 21.53125 265.996094 38.324219 282.792969 L 46.335938 290.808594 L 26.121094 311.035156 L 50.625 335.546875 L 70.839844 315.324219 L 78.851562 323.339844 C 87.25 331.738281 98.25 335.9375 109.253906 335.9375 C 120.253906 335.9375 131.257812 331.738281 139.65625 323.339844 L 181.925781 281.054688 Z M 80.59375 179.683594"/></g><path fill="#FFDE59" d="M 175.414062 290.6875 C 170.601562 290.6875 166.144531 288.882812 162.867188 285.605469 L 76.042969 198.746094 C 68.878906 191.582031 69.359375 179.421875 77.128906 171.652344 L 91.21875 157.558594 L 204.050781 270.421875 L 189.960938 284.519531 C 186.039062 288.441406 180.738281 290.6875 175.414062 290.6875 Z M 175.414062 290.6875"/><path fill="#FFBD59" d="M 91.210938 163.332031 L 198.269531 270.433594 L 187.070312 281.632812 C 183.910156 284.796875 179.660156 286.601562 175.414062 286.601562 C 171.691406 286.601562 168.257812 285.222656 165.75 282.714844 L 78.925781 195.855469 C 76.296875 193.222656 74.921875 189.613281 75.046875 185.691406 C 75.183594 181.5625 76.941406 177.601562 80.003906 174.535156 L 91.210938 163.332031 M 91.210938 151.78125 L 74.238281 168.757812 C 64.859375 178.140625 64.378906 192.855469 73.152344 201.640625 L 159.976562 288.5 C 164.175781 292.699219 169.730469 294.773438 175.414062 294.773438 C 181.613281 294.773438 187.953125 292.296875 192.84375 287.410156 L 209.816406 270.433594 Z M 91.210938 151.78125"/><path fill="#FFDE59" d="M 177.4375 305.742188 C 177.363281 305.171875 177.316406 304.597656 177.296875 304.023438 C 177.28125 303.449219 177.289062 302.875 177.328125 302.300781 C 177.363281 301.726562 177.429688 301.152344 177.523438 300.585938 C 177.617188 300.019531 177.738281 299.457031 177.882812 298.898438 C 178.03125 298.34375 178.207031 297.796875 178.40625 297.257812 C 178.609375 296.71875 178.835938 296.191406 179.085938 295.671875 C 179.339844 295.15625 179.617188 294.652344 179.917969 294.164062 C 180.21875 293.671875 180.542969 293.199219 180.890625 292.742188 C 181.238281 292.28125 181.605469 291.84375 181.996094 291.421875 C 182.382812 291 182.792969 290.597656 183.222656 290.214844 C 183.652344 289.832031 184.097656 289.472656 184.5625 289.132812 C 185.027344 288.792969 185.503906 288.480469 186 288.1875 C 186.496094 287.898438 187 287.628906 187.523438 287.386719 C 188.042969 287.144531 188.574219 286.929688 189.113281 286.738281 C 189.65625 286.550781 190.207031 286.386719 190.761719 286.25 C 191.320312 286.113281 191.882812 286.003906 192.449219 285.925781 C 219.769531 282.710938 247.179688 281.105469 274.6875 281.105469 C 302.191406 281.109375 329.605469 282.714844 356.921875 285.925781 C 357.492188 286.007812 358.054688 286.117188 358.609375 286.253906 C 359.167969 286.386719 359.71875 286.550781 360.257812 286.742188 C 360.800781 286.929688 361.332031 287.148438 361.851562 287.390625 C 362.371094 287.632812 362.878906 287.898438 363.375 288.191406 C 363.867188 288.480469 364.347656 288.796875 364.8125 289.132812 C 365.277344 289.472656 365.722656 289.832031 366.152344 290.214844 C 366.582031 290.597656 366.988281 291 367.378906 291.421875 C 367.769531 291.84375 368.136719 292.285156 368.484375 292.742188 C 368.832031 293.199219 369.15625 293.675781 369.457031 294.164062 C 369.757812 294.65625 370.035156 295.15625 370.289062 295.675781 C 370.539062 296.191406 370.765625 296.71875 370.96875 297.257812 C 371.167969 297.796875 371.34375 298.34375 371.488281 298.902344 C 371.636719 299.457031 371.757812 300.019531 371.851562 300.589844 C 371.945312 301.15625 372.007812 301.726562 372.046875 302.300781 C 372.085938 302.875 372.09375 303.449219 372.074219 304.027344 C 372.058594 304.601562 372.011719 305.175781 371.9375 305.746094 L 366.539062 343.742188 C 366.464844 344.324219 366.363281 344.898438 366.230469 345.46875 C 366.101562 346.039062 365.941406 346.601562 365.753906 347.15625 C 365.566406 347.710938 365.355469 348.253906 365.113281 348.789062 C 364.875 349.324219 364.605469 349.84375 364.316406 350.347656 C 364.023438 350.855469 363.707031 351.347656 363.367188 351.824219 C 363.027344 352.296875 362.664062 352.753906 362.277344 353.195312 C 361.894531 353.632812 361.488281 354.054688 361.058594 354.453125 C 360.632812 354.851562 360.1875 355.226562 359.722656 355.582031 C 359.261719 355.9375 358.78125 356.269531 358.28125 356.574219 C 357.785156 356.882812 357.273438 357.164062 356.75 357.417969 C 356.226562 357.675781 355.691406 357.902344 355.144531 358.105469 C 354.597656 358.308594 354.039062 358.484375 353.476562 358.632812 C 352.910156 358.78125 352.339844 358.898438 351.765625 358.988281 C 351.1875 359.078125 350.609375 359.140625 350.027344 359.175781 C 349.445312 359.207031 348.863281 359.210938 348.277344 359.1875 C 347.695312 359.160156 347.117188 359.109375 346.539062 359.027344 C 298.636719 353.535156 250.734375 353.535156 202.835938 359.023438 C 202.257812 359.105469 201.675781 359.160156 201.09375 359.1875 C 200.511719 359.210938 199.929688 359.207031 199.347656 359.171875 C 198.765625 359.140625 198.183594 359.078125 197.609375 358.988281 C 197.03125 358.898438 196.460938 358.777344 195.898438 358.628906 C 195.332031 358.484375 194.777344 358.308594 194.230469 358.105469 C 193.683594 357.902344 193.148438 357.671875 192.621094 357.417969 C 192.097656 357.160156 191.585938 356.878906 191.089844 356.574219 C 190.59375 356.265625 190.113281 355.9375 189.648438 355.582031 C 189.183594 355.226562 188.738281 354.847656 188.3125 354.449219 C 187.886719 354.050781 187.480469 353.632812 187.09375 353.191406 C 186.707031 352.753906 186.347656 352.296875 186.003906 351.820312 C 185.664062 351.347656 185.347656 350.855469 185.058594 350.347656 C 184.765625 349.839844 184.5 349.320312 184.257812 348.789062 C 184.019531 348.253906 183.804688 347.710938 183.617188 347.15625 C 183.433594 346.601562 183.273438 346.039062 183.140625 345.46875 C 183.011719 344.898438 182.910156 344.324219 182.835938 343.742188 Z M 177.4375 305.742188"/><g><g><g><path d="M 10.671875 -30.28125 C 10.835938 -30.519531 11.085938 -30.65625 11.421875 -30.6875 C 11.753906 -30.71875 12.265625 -30.613281 12.953125 -30.375 C 13.648438 -30.132812 14.234375 -29.757812 14.703125 -29.25 C 15.171875 -28.75 15.414062 -28.363281 15.4375 -28.09375 C 15.46875 -27.832031 15.394531 -27.601562 15.21875 -27.40625 L 6.9375 -16.203125 L 17.3125 -7.4375 C 17.5 -7.257812 17.601562 -7.039062 17.625 -6.78125 C 17.65625 -6.53125 17.488281 -6.097656 17.125 -5.484375 C 16.757812 -4.878906 16.265625 -4.398438 15.640625 -4.046875 C 15.023438 -3.691406 14.554688 -3.5 14.234375 -3.46875 C 13.921875 -3.4375 13.644531 -3.519531 13.40625 -3.71875 L 1.65625 -14.453125 C 1.1875 -14.828125 0.929688 -15.179688 0.890625 -15.515625 C 0.859375 -15.859375 0.976562 -16.195312 1.25 -16.53125 Z M 10.671875 -30.28125" transform="translate(200.073 338.104)"/></g></g></g><g><g><g><path d="M 17.65625 -33.46875 C 18.226562 -33.5 18.59375 -32.238281 18.75 -29.6875 C 18.800781 -28.894531 18.789062 -27.953125 18.71875 -26.859375 C 18.644531 -25.765625 18.429688 -25.207031 18.078125 -25.1875 L 9.09375 -24.609375 L 9.25 -21.234375 L 10.765625 -21.328125 C 14.054688 -21.535156 16.566406 -20.738281 18.296875 -18.9375 C 20.023438 -17.144531 20.988281 -14.679688 21.1875 -11.546875 C 21.382812 -8.410156 20.4375 -5.78125 18.34375 -3.65625 C 16.257812 -1.539062 13.484375 -0.375 10.015625 -0.15625 C 6.546875 0.0625 3.988281 -0.273438 2.34375 -1.171875 C 2.070312 -1.546875 1.90625 -2.15625 1.84375 -3 C 1.789062 -3.84375 1.835938 -5.046875 1.984375 -6.609375 C 2.140625 -8.179688 2.4375 -8.984375 2.875 -9.015625 C 2.894531 -9.015625 2.984375 -8.957031 3.140625 -8.84375 C 5.378906 -8.09375 7.070312 -7.753906 8.21875 -7.828125 C 9.375 -7.898438 10.304688 -8.273438 11.015625 -8.953125 C 11.722656 -9.628906 12.046875 -10.457031 11.984375 -11.4375 C 11.835938 -13.882812 10.445312 -15.023438 7.8125 -14.859375 L 3.84375 -14.5625 C 3.539062 -14.488281 3.226562 -14.601562 2.90625 -14.90625 C 2.582031 -15.21875 2.40625 -15.632812 2.375 -16.15625 L 1.46875 -30.5625 C 1.394531 -31.820312 1.8125 -32.476562 2.71875 -32.53125 Z M 17.65625 -33.46875" transform="translate(221.739 335.961)"/></g></g></g><g><g><g><path d="M 14.75 0.125 C 10.894531 0.21875 7.707031 -1.117188 5.1875 -3.890625 C 2.675781 -6.671875 1.359375 -10.78125 1.234375 -16.21875 C 1.117188 -21.664062 2.257812 -25.804688 4.65625 -28.640625 C 7.0625 -31.484375 10.207031 -32.945312 14.09375 -33.03125 C 17.988281 -33.125 21.164062 -31.8125 23.625 -29.09375 C 26.09375 -26.382812 27.390625 -22.242188 27.515625 -16.671875 C 27.640625 -11.109375 26.507812 -6.9375 24.125 -4.15625 C 21.738281 -1.382812 18.613281 0.0390625 14.75 0.125 Z M 14.203125 -24.1875 C 13.023438 -24.164062 12.039062 -23.472656 11.25 -22.109375 C 10.457031 -20.753906 10.085938 -18.84375 10.140625 -16.375 C 10.203125 -13.914062 10.640625 -12.039062 11.453125 -10.75 C 12.273438 -9.46875 13.304688 -8.835938 14.546875 -8.859375 C 15.796875 -8.890625 16.796875 -9.570312 17.546875 -10.90625 C 18.304688 -12.25 18.65625 -14.148438 18.59375 -16.609375 C 18.539062 -19.078125 18.09375 -20.960938 17.25 -22.265625 C 16.40625 -23.578125 15.390625 -24.21875 14.203125 -24.1875 Z M 14.203125 -24.1875" transform="translate(245.221 334.422)"/></g></g></g><g><g><g><path d="M 14.71875 0.78125 C 10.863281 0.695312 7.742188 -0.785156 5.359375 -3.671875 C 2.972656 -6.554688 1.835938 -10.71875 1.953125 -16.15625 C 2.078125 -21.601562 3.398438 -25.691406 5.921875 -28.421875 C 8.441406 -31.148438 11.644531 -32.472656 15.53125 -32.390625 C 19.425781 -32.304688 22.546875 -30.851562 24.890625 -28.03125 C 27.234375 -25.21875 28.34375 -21.023438 28.21875 -15.453125 C 28.101562 -9.890625 26.789062 -5.769531 24.28125 -3.09375 C 21.769531 -0.425781 18.582031 0.863281 14.71875 0.78125 Z M 15.25 -23.53125 C 14.070312 -23.5625 13.054688 -22.914062 12.203125 -21.59375 C 11.359375 -20.28125 10.910156 -18.390625 10.859375 -15.921875 C 10.804688 -13.460938 11.160156 -11.566406 11.921875 -10.234375 C 12.679688 -8.910156 13.679688 -8.234375 14.921875 -8.203125 C 16.171875 -8.179688 17.203125 -8.820312 18.015625 -10.125 C 18.828125 -11.4375 19.257812 -13.320312 19.3125 -15.78125 C 19.363281 -18.25 18.992188 -20.148438 18.203125 -21.484375 C 17.421875 -22.828125 16.4375 -23.507812 15.25 -23.53125 Z M 15.25 -23.53125" transform="translate(273.989 333.757)"/></g></g></g><g><g><g><path d="M 23.90625 -34.3125 C 24.082031 -34.632812 24.390625 -34.78125 24.828125 -34.75 C 25.273438 -34.726562 25.738281 -34.59375 26.21875 -34.34375 C 27.320312 -33.75 28.019531 -33.09375 28.3125 -32.375 C 28.425781 -32.15625 28.472656 -31.953125 28.453125 -31.765625 C 28.441406 -31.578125 28.40625 -31.425781 28.34375 -31.3125 L 4.453125 4.671875 C 4.242188 4.960938 3.910156 5.09375 3.453125 5.0625 C 3.003906 5.039062 2.5625 4.90625 2.125 4.65625 C 0.976562 4.039062 0.257812 3.382812 -0.03125 2.6875 C -0.113281 2.5 -0.148438 2.316406 -0.140625 2.140625 C -0.128906 1.972656 -0.0703125 1.816406 0.03125 1.671875 Z M 23.90625 -34.3125" transform="translate(302.792 334.395)"/></g></g></g><g><g><g><path d="M 19.28125 -14.5 C 19.550781 -14.164062 19.671875 -13.828125 19.640625 -13.484375 C 19.609375 -13.148438 19.363281 -12.796875 18.90625 -12.421875 L 7.125 -1.703125 C 6.882812 -1.503906 6.601562 -1.421875 6.28125 -1.453125 C 5.957031 -1.492188 5.484375 -1.691406 4.859375 -2.046875 C 4.234375 -2.398438 3.738281 -2.878906 3.375 -3.484375 C 3.019531 -4.097656 2.851562 -4.53125 2.875 -4.78125 C 2.90625 -5.039062 3.019531 -5.253906 3.21875 -5.421875 L 13.59375 -14.1875 L 5.328125 -25.390625 C 5.160156 -25.585938 5.085938 -25.816406 5.109375 -26.078125 C 5.140625 -26.347656 5.390625 -26.734375 5.859375 -27.234375 C 6.335938 -27.742188 6.914062 -28.113281 7.59375 -28.34375 C 8.28125 -28.570312 8.785156 -28.671875 9.109375 -28.640625 C 9.429688 -28.609375 9.691406 -28.488281 9.890625 -28.28125 Z M 19.28125 -14.5" transform="translate(328.607 336.07)"/></g></g></g></svg>