<svg xmlns="http://www.w3.org/2000/svg" width="943.5" viewBox="0 0 943.5 648" height="648" version="1.0"><defs><clipPath id="a"><path d="M 158.285156 10.707031 L 784.898438 10.707031 L 784.898438 637.320312 L 158.285156 637.320312 Z M 158.285156 10.707031"/></clipPath><clipPath id="b"><path d="M 390 28 L 784.898438 28 L 784.898438 401 L 390 401 Z M 390 28"/></clipPath></defs><g clip-path="url(#a)"><path fill="#38B6FF" d="M 784.9375 323.996094 C 784.9375 324.734375 784.9375 325.550781 784.890625 326.300781 C 784.789062 341.734375 783.582031 356.910156 781.261719 371.753906 C 770.355469 443.429688 735.171875 507.066406 684.351562 554.023438 L 684.304688 554.023438 C 628.402344 605.738281 553.652344 637.359375 471.574219 637.359375 C 431.402344 637.359375 392.996094 629.820312 357.761719 615.992188 C 353.394531 614.339844 349.0625 612.523438 344.785156 610.625 C 285.171875 584.222656 235.402344 539.796875 202.277344 484.195312 C 185.644531 456.25 173.171875 425.480469 165.832031 392.8125 C 160.859375 370.640625 158.246094 347.609375 158.246094 323.996094 C 158.246094 315.703125 158.554688 307.5 159.257812 299.417969 C 164.535156 230.6875 192.035156 168.199219 234.5625 119.097656 C 250.933594 100.183594 269.539062 83.246094 289.957031 68.726562 L 290.007812 68.675781 C 295.535156 64.765625 301.207031 60.941406 307.042969 57.375 C 342.636719 35.351562 382.941406 20.214844 426.121094 13.9375 C 440.953125 11.765625 456.140625 10.667969 471.574219 10.667969 C 508.363281 10.667969 543.746094 17.042969 576.527344 28.714844 C 629.515625 47.515625 675.851562 80.1875 711.347656 122.304688 C 757.304688 176.8125 784.9375 247.183594 784.9375 323.996094"/></g><path fill="#008037" d="M 513.433594 569.222656 C 513.433594 569.222656 496.371094 545.421875 498.269531 504.625 C 500.160156 463.824219 496.371094 457.027344 469.847656 448.527344 C 443.320312 440.027344 416.785156 424.714844 412.996094 404.324219 C 409.207031 383.917969 431.945312 336.320312 431.945312 336.320312 C 431.945312 336.320312 462.269531 315.925781 488.796875 319.320312 C 515.320312 322.722656 560.808594 322.722656 581.644531 341.425781 C 602.496094 360.117188 615.746094 402.621094 625.222656 404.324219 C 634.695312 406.023438 611.957031 479.121094 608.171875 491.027344 C 604.382812 502.921875 593.019531 550.53125 583.546875 569.222656 C 574.070312 587.925781 564.59375 604.925781 557.007812 604.925781 C 549.433594 604.925781 515.320312 608.332031 513.433594 569.222656"/><path fill="#008037" d="M 366.199219 565.335938 C 364.546875 573.367188 361.585938 594.734375 357.761719 615.992188 C 353.394531 614.339844 349.0625 612.523438 344.785156 610.625 C 285.171875 584.222656 235.402344 539.796875 202.277344 484.195312 C 185.644531 456.25 173.171875 425.480469 165.832031 392.8125 C 177.390625 386.667969 191.875 381.140625 206.101562 381.398438 C 237.265625 382.003906 241.1875 389.664062 267.726562 408.703125 C 294.214844 427.761719 314.976562 475.3125 326.191406 476.125 C 337.394531 476.878906 369.074219 551.050781 366.199219 565.335938"/><g clip-path="url(#b)"><path fill="#008037" d="M 784.9375 323.996094 C 784.9375 324.734375 784.9375 325.550781 784.890625 326.300781 C 784.789062 341.734375 783.582031 356.910156 781.261719 371.753906 C 767.199219 351.085938 752.011719 320.070312 744.273438 314.644531 C 732.355469 306.242188 688.683594 301.21875 704.5625 323.03125 C 720.453125 344.90625 727.175781 344.90625 727.175781 344.90625 C 727.175781 344.90625 696.617188 406.433594 674.804688 400.460938 C 652.941406 394.527344 609.257812 314.644531 609.257812 314.644531 C 583.460938 294.335938 633.078125 279.359375 633.078125 279.359375 C 633.078125 279.359375 648.96875 265.480469 625.132812 249.589844 C 601.3125 233.710938 583.460938 267.441406 567.582031 263.46875 C 551.703125 259.496094 547.71875 275.375 542.746094 291.265625 C 537.773438 307.140625 523.289062 316.652344 519.921875 291.265625 C 516.503906 265.875 480.210938 281.371094 468.304688 281.371094 C 456.386719 281.371094 432.5625 323.03125 410.6875 323.03125 C 388.875 323.03125 388.875 293.273438 392.847656 279.359375 C 396.820312 265.480469 430.550781 251.550781 462.320312 249.589844 C 494.089844 247.589844 464.332031 219.78125 474.238281 214.402344 C 484.183594 208.976562 513.953125 217.820312 542.746094 229.738281 C 571.503906 241.65625 601.3125 213.847656 627.144531 214.402344 C 652.941406 214.957031 571.554688 193.996094 597.339844 174.132812 C 623.183594 154.285156 567.582031 136.394531 569.542969 114.570312 C 571.554688 92.707031 553.652344 66.910156 553.652344 43.089844 C 553.652344 35.5 562.105469 30.566406 576.527344 28.714844 C 629.515625 47.515625 675.851562 80.1875 711.347656 122.304688 C 757.304688 176.8125 784.9375 247.183594 784.9375 323.996094"/></g><path fill="#008037" d="M 341.355469 218.066406 C 341.355469 218.066406 352.863281 231.664062 361.734375 218.066406 C 370.617188 204.460938 371.875 193.613281 366.324219 192.640625 C 360.746094 191.640625 327.707031 212.40625 341.355469 218.066406"/><path fill="#008037" d="M 274.300781 218.066406 C 274.300781 218.066406 297.964844 212.023438 303.21875 200.191406 C 308.488281 188.347656 338.726562 193.613281 346.609375 181.769531 C 354.503906 169.941406 374.921875 165.71875 379.847656 154.679688 C 384.742188 143.648438 390.085938 126.5625 369.667969 125.230469 C 349.25 123.921875 329.113281 114.730469 329.324219 125.230469 C 329.523438 135.765625 324.265625 133.125 305.859375 139.703125 C 287.453125 146.277344 267.726562 136.789062 267.726562 154.679688 C 267.726562 172.578125 272.992188 192.589844 272.992188 192.589844 C 272.992188 192.589844 262.46875 207.027344 274.300781 218.066406"/><path fill="#008037" d="M 426.121094 13.9375 C 426.121094 13.9375 390.886719 60.988281 384.347656 62.25 C 377.773438 63.496094 357.613281 77.3125 353.886719 91.15625 C 350.125 104.984375 323.722656 113.769531 303.625 104.984375 C 283.515625 96.175781 278.890625 86.480469 289.957031 68.726562 L 290.007812 68.675781 C 295.535156 64.765625 301.207031 60.941406 307.042969 57.375 C 342.636719 35.351562 382.941406 20.214844 426.121094 13.9375"/><path fill="#008037" d="M 228.628906 198.820312 C 225.296875 208.875 226.113281 220.597656 215.253906 224.101562 C 204.335938 227.628906 208.519531 240.695312 200.980469 257.433594 C 194.195312 272.523438 165.09375 295.039062 159.257812 299.417969 C 164.535156 230.6875 192.035156 168.199219 234.5625 119.097656 C 238.980469 132.519531 237.265625 154.679688 241.1875 161.921875 C 247.074219 172.828125 231.984375 188.765625 228.628906 198.820312"/><path fill="#FFDE59" d="M 8.796875 309.699219 C 8.429688 308.195312 8.136719 306.679688 7.917969 305.148438 C 7.699219 303.617188 7.554688 302.078125 7.484375 300.535156 C 7.414062 298.988281 7.417969 297.445312 7.5 295.898438 C 7.582031 294.355469 7.734375 292.816406 7.964844 291.289062 C 8.195312 289.757812 8.5 288.246094 8.875 286.746094 C 9.253906 285.246094 9.703125 283.765625 10.222656 282.3125 C 10.746094 280.855469 11.335938 279.429688 11.996094 278.03125 C 12.65625 276.632812 13.382812 275.269531 14.171875 273.941406 C 14.964844 272.613281 15.820312 271.328125 16.738281 270.085938 C 17.65625 268.839844 18.628906 267.644531 19.664062 266.496094 C 20.699219 265.347656 21.785156 264.253906 22.925781 263.210938 C 24.066406 262.167969 25.253906 261.183594 26.488281 260.257812 C 27.726562 259.332031 29.003906 258.46875 30.324219 257.667969 C 31.644531 256.863281 33 256.128906 34.390625 255.460938 C 35.78125 254.792969 37.203125 254.191406 38.652344 253.660156 C 40.101562 253.132812 41.574219 252.671875 43.070312 252.285156 C 78.203125 244.132812 113.539062 236.992188 149.078125 230.851562 C 184.621094 224.714844 220.304688 219.597656 256.136719 215.492188 C 291.964844 211.390625 327.882812 208.3125 363.886719 206.257812 C 399.894531 204.203125 435.925781 203.175781 471.992188 203.175781 C 508.054688 203.175781 544.085938 204.203125 580.09375 206.257812 C 616.097656 208.3125 652.015625 211.390625 687.847656 215.492188 C 723.675781 219.597656 759.359375 224.714844 794.902344 230.851562 C 830.441406 236.992188 865.777344 244.132812 900.910156 252.285156 C 902.40625 252.671875 903.878906 253.132812 905.328125 253.660156 C 906.777344 254.191406 908.199219 254.792969 909.589844 255.460938 C 910.980469 256.128906 912.335938 256.863281 913.65625 257.664062 C 914.976562 258.46875 916.253906 259.332031 917.492188 260.257812 C 918.726562 261.183594 919.914062 262.167969 921.054688 263.210938 C 922.195312 264.253906 923.28125 265.347656 924.316406 266.496094 C 925.347656 267.644531 926.324219 268.839844 927.242188 270.085938 C 928.160156 271.328125 929.015625 272.613281 929.808594 273.941406 C 930.597656 275.269531 931.324219 276.632812 931.984375 278.03125 C 932.644531 279.429688 933.234375 280.855469 933.757812 282.3125 C 934.277344 283.765625 934.726562 285.246094 935.105469 286.746094 C 935.480469 288.246094 935.785156 289.757812 936.015625 291.289062 C 936.246094 292.816406 936.398438 294.355469 936.480469 295.898438 C 936.5625 297.445312 936.566406 298.988281 936.496094 300.535156 C 936.425781 302.078125 936.28125 303.617188 936.0625 305.148438 C 935.84375 306.679688 935.550781 308.195312 935.183594 309.699219 L 909.472656 409.574219 C 909.101562 411.101562 908.65625 412.609375 908.136719 414.089844 C 907.617188 415.574219 907.023438 417.03125 906.359375 418.457031 C 905.695312 419.882812 904.964844 421.269531 904.164062 422.625 C 903.363281 423.976562 902.496094 425.285156 901.566406 426.550781 C 900.632812 427.820312 899.644531 429.035156 898.59375 430.203125 C 897.542969 431.371094 896.433594 432.484375 895.273438 433.542969 C 894.113281 434.601562 892.902344 435.601562 891.640625 436.539062 C 890.382812 437.476562 889.078125 438.347656 887.734375 439.15625 C 886.386719 439.964844 885.003906 440.707031 883.582031 441.378906 C 882.164062 442.050781 880.714844 442.648438 879.238281 443.175781 C 877.757812 443.703125 876.257812 444.15625 874.734375 444.535156 C 873.210938 444.910156 871.671875 445.214844 870.117188 445.4375 C 868.5625 445.664062 867.003906 445.8125 865.433594 445.882812 C 863.867188 445.953125 862.300781 445.945312 860.734375 445.859375 C 859.164062 445.773438 857.605469 445.609375 856.054688 445.371094 C 854.503906 445.128906 852.96875 444.8125 851.449219 444.421875 C 820.351562 437.300781 789.082031 431.0625 757.636719 425.703125 C 726.191406 420.34375 694.617188 415.871094 662.921875 412.289062 C 631.226562 408.707031 599.453125 406.019531 567.605469 404.222656 C 535.761719 402.429688 503.886719 401.53125 471.988281 401.53125 C 440.09375 401.53125 408.21875 402.429688 376.375 404.222656 C 344.527344 406.019531 312.753906 408.707031 281.058594 412.289062 C 249.363281 415.871094 217.789062 420.34375 186.34375 425.703125 C 154.898438 431.0625 123.628906 437.300781 92.53125 444.421875 C 91.011719 444.8125 89.476562 445.128906 87.925781 445.371094 C 86.375 445.609375 84.816406 445.773438 83.246094 445.859375 C 81.679688 445.945312 80.113281 445.953125 78.542969 445.882812 C 76.976562 445.8125 75.417969 445.664062 73.863281 445.4375 C 72.308594 445.214844 70.769531 444.910156 69.246094 444.535156 C 67.722656 444.15625 66.222656 443.703125 64.742188 443.175781 C 63.265625 442.648438 61.816406 442.050781 60.394531 441.378906 C 58.976562 440.707031 57.59375 439.964844 56.246094 439.15625 C 54.902344 438.347656 53.597656 437.476562 52.339844 436.539062 C 51.078125 435.601562 49.867188 434.601562 48.707031 433.542969 C 47.546875 432.484375 46.4375 431.371094 45.386719 430.203125 C 44.335938 429.035156 43.347656 427.820312 42.414062 426.550781 C 41.484375 425.285156 40.617188 423.976562 39.816406 422.625 C 39.015625 421.269531 38.285156 419.882812 37.621094 418.457031 C 36.957031 417.03125 36.363281 415.574219 35.84375 414.089844 C 35.324219 412.609375 34.878906 411.101562 34.507812 409.574219 Z M 8.796875 309.699219"/><g><g><g><path d="M 19.515625 -84.265625 C 19.878906 -84.921875 20.507812 -85.34375 21.40625 -85.53125 C 22.300781 -85.71875 23.703125 -85.59375 25.609375 -85.15625 C 27.523438 -84.71875 29.1875 -83.882812 30.59375 -82.65625 C 32 -81.425781 32.773438 -80.46875 32.921875 -79.78125 C 33.066406 -79.09375 32.945312 -78.457031 32.5625 -77.875 L 13.75 -45.453125 L 44.09375 -25.078125 C 44.6875 -24.691406 45.054688 -24.15625 45.203125 -23.46875 C 45.347656 -22.78125 45.007812 -21.5625 44.1875 -19.8125 C 43.375 -18.070312 42.195312 -16.632812 40.65625 -15.5 C 39.113281 -14.375 37.914062 -13.722656 37.0625 -13.546875 C 36.21875 -13.367188 35.453125 -13.5 34.765625 -13.9375 L 0.125 -39.140625 C -1.257812 -40.023438 -2.046875 -40.910156 -2.234375 -41.796875 C -2.429688 -42.691406 -2.207031 -43.632812 -1.5625 -44.625 Z M 19.515625 -84.265625" transform="translate(79.035 389.545)"/></g></g></g><g><g><g><path d="M 5.15625 -6.6875 L -7.484375 -80.140625 C -7.835938 -82.179688 -7.609375 -83.878906 -6.796875 -85.234375 C -5.984375 -86.597656 -4.757812 -87.421875 -3.125 -87.703125 L 17.328125 -91.21875 C 30.304688 -93.457031 40.722656 -91.890625 48.578125 -86.515625 C 56.441406 -81.148438 61.582031 -71.445312 64 -57.40625 C 69.164062 -27.363281 58.9375 -10.140625 33.3125 -5.734375 L 12.359375 -2.125 C 8.203125 -1.40625 5.800781 -2.925781 5.15625 -6.6875 Z M 18.875 -67.53125 L 25.171875 -30.9375 C 25.472656 -29.21875 25.785156 -28.148438 26.109375 -27.734375 C 26.429688 -27.328125 27.207031 -27.234375 28.4375 -27.453125 C 32.914062 -28.222656 36.03125 -30.484375 37.78125 -34.234375 C 39.539062 -37.984375 39.75 -43.753906 38.40625 -51.546875 C 37.070312 -59.347656 34.992188 -64.222656 32.171875 -66.171875 C 29.359375 -68.117188 25.335938 -68.644531 20.109375 -67.75 Z M 18.875 -67.53125" transform="translate(136.213 377.27)"/></g></g></g><g><g><g><path d="M 39.28125 -58.109375 C 40.84375 -58.316406 42.003906 -55.550781 42.765625 -49.8125 C 42.992188 -48.082031 43.078125 -46.019531 43.015625 -43.625 C 42.953125 -41.238281 42.429688 -39.984375 41.453125 -39.859375 L 25.8125 -37.78125 L 27.453125 -25.453125 L 50.109375 -28.453125 C 51.503906 -28.640625 52.691406 -26.96875 53.671875 -23.4375 C 54.117188 -21.90625 54.457031 -20.253906 54.6875 -18.484375 C 54.925781 -16.722656 54.984375 -14.410156 54.859375 -11.546875 C 54.734375 -8.691406 54.097656 -7.1875 52.953125 -7.03125 L 10.84375 -1.4375 C 7.726562 -1.019531 6.003906 -2.082031 5.671875 -4.625 L -4.859375 -83.8125 C -5.140625 -85.945312 -4.34375 -87.140625 -2.46875 -87.390625 L 41.625 -93.265625 C 43.351562 -93.492188 44.695312 -89.972656 45.65625 -82.703125 C 46.625 -75.441406 46.242188 -71.695312 44.515625 -71.46875 L 21.734375 -68.4375 L 23.390625 -56 Z M 39.28125 -58.109375" transform="translate(210.006 364.688)"/></g></g></g><g><g><g><path d="M -6.515625 -85.109375 C -6.546875 -85.515625 -4.785156 -86.070312 -1.234375 -86.78125 C 2.316406 -87.488281 5.25 -87.945312 7.5625 -88.15625 C 16.707031 -89.007812 21.597656 -88.253906 22.234375 -85.890625 L 37.921875 -32.46875 L 42.890625 -87.8125 C 43.171875 -90.25 48.175781 -91.921875 57.90625 -92.828125 C 60.289062 -93.046875 63.3125 -93.15625 66.96875 -93.15625 C 70.632812 -93.164062 72.488281 -92.96875 72.53125 -92.5625 L 58.21875 -8.640625 C 58.007812 -7.296875 55.65625 -6.207031 51.15625 -5.375 C 44.21875 -3.96875 37.863281 -3.226562 32.09375 -3.15625 C 26.320312 -3.082031 23.21875 -3.601562 22.78125 -4.71875 Z M -6.515625 -85.109375" transform="translate(268.975 356.605)"/></g></g></g><g><g><g><path d="M 47.96875 -89.65625 C 49.375 -89.726562 50.269531 -86.101562 50.65625 -78.78125 C 51.050781 -71.457031 50.546875 -67.757812 49.140625 -67.6875 L 26.4375 -66.46875 L 27.1875 -52.328125 L 42.328125 -53.140625 C 43.734375 -53.210938 44.601562 -50.046875 44.9375 -43.640625 C 45.28125 -37.234375 44.789062 -33.992188 43.46875 -33.921875 L 28.203125 -33.109375 L 29.8125 -3.203125 C 29.863281 -2.046875 28.347656 -1.195312 25.265625 -0.65625 C 22.191406 -0.113281 19.617188 0.207031 17.546875 0.3125 L 11.703125 0.375 C 7.628906 0.09375 5.5625 -0.625 5.5 -1.78125 L 1.125 -83.90625 C 1.050781 -85.226562 1.269531 -86.113281 1.78125 -86.5625 C 2.300781 -87.007812 3.101562 -87.257812 4.1875 -87.3125 Z M 47.96875 -89.65625" transform="translate(349.061 349.384)"/></g></g></g><g><g><g><path d="M 4.8125 -7.4375 L 3.109375 -84.703125 C 3.066406 -86.441406 7.25 -87.40625 15.65625 -87.59375 C 24.0625 -87.78125 28.285156 -87.003906 28.328125 -85.265625 L 29.671875 -24.40625 L 48.796875 -24.828125 C 50.285156 -24.859375 51.359375 -22.929688 52.015625 -19.046875 C 52.304688 -17.140625 52.472656 -15.191406 52.515625 -13.203125 C 52.554688 -11.210938 52.476562 -9.1875 52.28125 -7.125 C 51.707031 -3.125 50.675781 -1.109375 49.1875 -1.078125 L 10.9375 -0.234375 C 9.113281 -0.203125 7.644531 -0.914062 6.53125 -2.375 C 5.425781 -3.84375 4.851562 -5.53125 4.8125 -7.4375 Z M 4.8125 -7.4375" transform="translate(406.253 346.347)"/></g></g></g><g><g><g><path d="M 43.140625 1.984375 C 31.515625 1.785156 22.097656 -2.179688 14.890625 -9.921875 C 7.691406 -17.671875 4.21875 -28.851562 4.46875 -43.46875 C 4.71875 -58.082031 8.613281 -69.09375 16.15625 -76.5 C 23.695312 -83.914062 33.320312 -87.523438 45.03125 -87.328125 C 56.75 -87.128906 66.144531 -83.257812 73.21875 -75.71875 C 80.289062 -68.1875 83.703125 -56.90625 83.453125 -41.875 C 83.203125 -26.851562 79.328125 -15.738281 71.828125 -8.53125 C 64.335938 -1.320312 54.773438 2.179688 43.140625 1.984375 Z M 44.328125 -63.484375 C 40.347656 -63.554688 36.976562 -61.789062 34.21875 -58.1875 C 31.46875 -54.582031 30.035156 -49.488281 29.921875 -42.90625 C 29.804688 -36.332031 31.003906 -31.265625 33.515625 -27.703125 C 36.023438 -24.140625 39.367188 -22.320312 43.546875 -22.25 C 47.734375 -22.175781 51.160156 -23.898438 53.828125 -27.421875 C 56.492188 -30.941406 57.878906 -36.007812 57.984375 -42.625 C 58.097656 -49.25 56.84375 -54.363281 54.21875 -57.96875 C 51.601562 -61.582031 48.304688 -63.421875 44.328125 -63.484375 Z M 44.328125 -63.484375" transform="translate(458.583 344.844)"/></g></g></g><g><g><g><path d="M 29.984375 0.09375 C 29.898438 1.414062 25.9375 1.835938 18.09375 1.359375 C 10.15625 0.867188 6.222656 0.00390625 6.296875 -1.234375 L 11.265625 -82.078125 C 11.441406 -84.972656 13.0625 -86.328125 16.125 -86.140625 L 39.796875 -84.6875 C 61.535156 -83.351562 71.882812 -74.21875 70.84375 -57.28125 C 70.53125 -52.144531 69.253906 -47.550781 67.015625 -43.5 C 64.785156 -39.445312 61.769531 -36.285156 57.96875 -34.015625 L 72 -7.03125 C 71.207031 -5.09375 68.914062 -2.945312 65.125 -0.59375 C 59.945312 2.644531 55.742188 4.164062 52.515625 3.96875 C 49.296875 3.769531 46.972656 2.460938 45.546875 0.046875 L 35.5625 -27.8125 L 31.703125 -28.046875 Z M 33.859375 -63.015625 L 32.71875 -44.421875 L 33.34375 -44.375 C 41.195312 -43.894531 45.320312 -46.921875 45.71875 -53.453125 C 45.90625 -56.429688 45.273438 -58.6875 43.828125 -60.21875 C 42.390625 -61.757812 39.9375 -62.632812 36.46875 -62.84375 Z M 33.859375 -63.015625" transform="translate(543.104 346.381)"/></g></g></g><g><g><g><path d="M 51.515625 -47.578125 C 53.085938 -47.429688 53.59375 -44.472656 53.03125 -38.703125 C 52.851562 -36.972656 52.460938 -34.953125 51.859375 -32.640625 C 51.253906 -30.328125 50.460938 -29.21875 49.484375 -29.3125 L 33.765625 -30.859375 L 32.53125 -18.484375 L 55.28125 -16.234375 C 56.6875 -16.097656 57.457031 -14.195312 57.59375 -10.53125 C 57.6875 -8.945312 57.644531 -7.265625 57.46875 -5.484375 C 57.289062 -3.710938 56.816406 -1.453125 56.046875 1.296875 C 55.273438 4.054688 54.3125 5.378906 53.15625 5.265625 L 10.890625 1.078125 C 7.753906 0.765625 6.3125 -0.664062 6.5625 -3.21875 L 14.4375 -82.71875 C 14.644531 -84.863281 15.691406 -85.84375 17.578125 -85.65625 L 61.84375 -81.28125 C 63.582031 -81.101562 64.085938 -77.363281 63.359375 -70.0625 C 62.640625 -62.769531 61.410156 -59.210938 59.671875 -59.390625 L 36.796875 -61.640625 L 35.5625 -49.15625 Z M 51.515625 -47.578125" transform="translate(614.632 350.853)"/></g></g></g><g><g><g><path d="M 18.015625 -62.5 C 16.628906 -62.6875 15.898438 -64.703125 15.828125 -68.546875 C 15.796875 -70.140625 15.90625 -71.878906 16.15625 -73.765625 C 16.414062 -75.648438 16.890625 -77.597656 17.578125 -79.609375 C 18.828125 -83.285156 20.316406 -85.003906 22.046875 -84.765625 L 67.59375 -78.578125 C 72.601562 -77.898438 75.222656 -72.898438 75.453125 -63.578125 C 75.523438 -61.566406 75.5 -60.113281 75.375 -59.21875 L 40.625 -19.4375 L 63.15625 -16.375 C 63.238281 -16.363281 63.320312 -16.351562 63.40625 -16.34375 C 65.207031 -16.09375 66.210938 -13.945312 66.421875 -9.90625 C 66.484375 -7.976562 66.375 -5.984375 66.09375 -3.921875 C 65.8125 -1.867188 65.28125 0.265625 64.5 2.484375 C 63.019531 6.472656 61.335938 8.335938 59.453125 8.078125 L 11.5625 1.578125 C 10.832031 1.472656 9.835938 -1.1875 8.578125 -6.40625 C 7.328125 -11.632812 6.785156 -14.863281 6.953125 -16.09375 C 7.117188 -17.332031 7.347656 -18.097656 7.640625 -18.390625 L 42.53125 -59.171875 Z M 18.015625 -62.5" transform="translate(674.015 356.62)"/></g></g></g><g><g><g><path d="M 74.1875 -84.703125 C 74.757812 -85.515625 75.632812 -85.816406 76.8125 -85.609375 C 77.988281 -85.398438 79.1875 -84.898438 80.40625 -84.109375 C 83.175781 -82.191406 84.84375 -80.21875 85.40625 -78.1875 C 85.632812 -77.5625 85.703125 -77.003906 85.609375 -76.515625 C 85.523438 -76.023438 85.375 -75.628906 85.15625 -75.328125 L 10.5625 13.84375 C 9.914062 14.570312 8.984375 14.828125 7.765625 14.609375 C 6.546875 14.390625 5.375 13.890625 4.25 13.109375 C 1.40625 11.085938 -0.300781 9.101562 -0.875 7.15625 C -1.039062 6.625 -1.082031 6.132812 -1 5.6875 C -0.925781 5.238281 -0.726562 4.832031 -0.40625 4.46875 Z M 74.1875 -84.703125" transform="translate(741.637 365.762)"/></g></g></g><g><g><g><path d="M 55.921875 -33.0625 C 56.566406 -32.082031 56.789062 -31.144531 56.59375 -30.25 C 56.40625 -29.363281 55.625 -28.472656 54.25 -27.578125 L 19.578125 -2.4375 C 18.878906 -2 18.101562 -1.867188 17.25 -2.046875 C 16.40625 -2.222656 15.191406 -2.878906 13.609375 -4.015625 C 12.035156 -5.160156 10.859375 -6.597656 10.078125 -8.328125 C 9.304688 -10.054688 8.992188 -11.265625 9.140625 -11.953125 C 9.285156 -12.640625 9.65625 -13.175781 10.25 -13.5625 L 40.609375 -33.921875 L 21.84375 -66.359375 C 21.457031 -66.941406 21.335938 -67.578125 21.484375 -68.265625 C 21.628906 -68.953125 22.40625 -69.910156 23.8125 -71.140625 C 25.226562 -72.367188 26.882812 -73.179688 28.78125 -73.578125 C 30.6875 -73.972656 32.066406 -74.082031 32.921875 -73.90625 C 33.773438 -73.726562 34.429688 -73.332031 34.890625 -72.71875 Z M 55.921875 -33.0625" transform="translate(810.21 377.94)"/></g></g></g></svg>